<svg width="2033" height="800" viewBox="0 0 2033 800" fill="none" xmlns="http://www.w3.org/2000/svg">
<path fill-rule="evenodd" clip-rule="evenodd" d="M989.757 0.448961C920.415 7.1631 874.02 51.0915 865.523 118.078C864.198 128.523 862.986 166.152 863 196.392C863.017 231.553 863.409 234.614 869.486 247.153C871.665 251.649 877.536 262.301 882.532 270.824C896.23 294.194 895.96 293.47 896.599 308.646C896.892 315.601 897.322 322.747 897.556 324.525C900.816 349.352 903.418 363.37 908.119 381.427C915.729 410.664 927.545 440.423 945.467 475.482L954.566 493.281L955.466 506.519C955.961 513.8 956.386 524.194 956.411 529.618L956.457 539.479L952.073 551.236C941.708 579.041 906.465 680.684 894.457 717.409C888.36 736.056 883.924 752.394 883.137 759.096C882.439 765.05 883.742 768.696 888.14 773.094C891.081 776.035 893.194 777.349 897.908 779.166C919.631 787.543 956.025 794.784 993.268 798.138C1006.15 799.298 1045.2 799.284 1057.15 798.115C1092.25 794.68 1121.45 787.225 1147.14 775.142L1154.23 771.806V765.495C1154.23 752.24 1152.02 737.056 1148.66 727.273C1143.81 713.112 1132.18 688.291 1123.79 674.155C1121.41 670.149 1117.11 663.94 1114.22 660.357C1111.34 656.775 1108.14 652.147 1107.1 650.075C1105.38 646.626 1105.26 645.794 1105.65 640.254C1106.28 631.402 1105.28 629.316 1095.86 619.788C1088.25 612.088 1084.25 606.523 1082.35 601.023C1081.52 598.597 1081.54 596.147 1082.49 584.588C1083.1 577.117 1083.5 566.26 1083.37 560.462L1083.13 549.92L1079.89 545.307C1075.98 539.726 1071.97 530.166 1071.96 526.36C1071.93 521.447 1082.05 486.09 1088.24 469.429C1090.05 464.557 1093.27 456.644 1095.39 451.847C1100.17 441.045 1102.99 433.109 1106.6 420.365C1109.58 409.825 1114.36 387.529 1116.31 375.037C1118.63 360.208 1123.36 340.524 1133.31 304.301C1155.63 223.027 1165.52 182.521 1169.07 157.875C1170.61 147.159 1170.29 137.594 1168.32 135.422C1167.44 134.447 1166.31 133.963 1165.34 134.148C1163.94 134.416 1163.74 134.05 1163.32 130.531C1162.56 124.007 1160.27 120.965 1156.14 120.965C1154.45 120.965 1154.31 120.672 1153.86 116.093C1151.93 96.618 1144.67 76.4135 1133.7 59.997C1112.43 28.1673 1078.63 8.71207 1032.61 1.79872C1021.71 0.162408 999.836 -0.526906 989.757 0.448961ZM991.464 8.83766C962.564 11.1424 945.046 17.0365 927.13 30.4843C920.362 35.5643 909.554 46.9398 907.736 50.8988C903.352 60.4373 899.048 68.9011 894.498 76.9296L889.388 85.9463L893.87 86.7078C899.293 87.6295 902.22 89.1027 904.871 92.2476C907.64 95.5303 908.644 98.2334 909.421 104.492C909.788 107.454 910.617 110.897 911.262 112.145C913.164 115.822 919.276 118.801 929.028 120.805L932.277 121.473L930.111 122.398C926.876 123.779 920.883 124.134 917.827 123.126C911.857 121.155 906.779 114.33 905.29 106.273C904.866 103.981 903.84 101.233 903.01 100.167C899.863 96.1243 888.967 88.5585 887.87 89.6549C885.891 91.634 883.15 112.358 881.994 134.07C881.082 151.2 881.842 168.951 883.97 180.252C887.27 197.773 903.384 234.65 908.14 235.566C908.789 235.691 910.257 234.391 911.64 232.466C914.61 228.33 915.258 223.953 915.291 207.808C915.315 195.757 914.938 193.489 912.503 191.055C909.339 187.89 908.768 179.238 910.594 162.107C912.071 148.253 914.24 142.856 919.527 139.885C921.089 139.006 923.428 138.288 924.724 138.288H927.08L924.161 140.403C914.99 147.045 912.839 169.653 918.663 198.197C920.941 209.368 920.725 218.004 917.898 228.702C915.292 238.564 915.373 239.354 919.34 242.846C923.339 246.367 929.294 248.489 937.917 249.47C948.203 250.638 953.806 248.651 961.157 241.225C968.854 233.449 974.911 222.809 979.282 209.385C981.482 202.629 981.818 200.736 981.537 196.69C981.003 188.988 978.2 184.642 965.061 171.138C952.437 158.163 950.864 155.581 951.634 149.09C952.179 144.485 955.431 137.188 957.753 135.362C961.026 132.787 968.224 133.497 978.374 137.399C983.197 139.252 983.356 139.267 984.329 137.936C985.572 136.236 985.613 134.247 984.426 133.275C983.93 132.868 982.461 131.684 981.162 130.642C979.721 129.487 977.692 126.43 975.962 122.806C973.873 118.428 972.26 116.154 969.833 114.166C965.516 110.628 964.292 108.079 963.756 101.517C963.343 96.4513 963.186 96.0485 961.371 95.4126C958.394 94.3682 954.496 97.4149 948.015 105.852C943.37 111.9 942.358 112.874 941.928 111.711C941.318 110.064 942.33 105.089 943.887 102.079C944.494 100.906 946.118 98.6968 947.498 97.1702L950.007 94.3934L947.023 93.8889C941.348 92.9304 937.785 87.4642 938.88 81.3975L939.313 79.0026L941.208 80.7674C943.675 83.0649 948.499 84.5345 958.138 85.9239C962.437 86.5439 966.575 87.3834 967.333 87.789C969.534 88.967 970.88 92.3825 971.663 98.774C972.631 106.687 972.694 106.842 976.006 109.465C979.277 112.055 980.99 114.929 981.014 117.861C981.049 122.393 986.016 129.295 990.441 130.962C993.344 132.055 994.819 130.372 995.724 124.935C996.713 118.997 997.017 118.078 997.992 118.078C999.811 118.078 1000.68 121.008 1000.32 125.96C999.959 131.042 998.837 133.863 995.937 136.987L994.129 138.935L995.854 140.066C999.663 142.561 1001.61 148.96 1004.11 167.147C1004.95 173.294 1006.09 180.277 1006.65 182.665C1009.33 194.22 1019.2 226.41 1026.21 246.467L1029.58 256.12L1031.2 251.662C1034.39 242.846 1039.08 237.438 1046.36 234.173C1053.55 230.951 1065.83 232.596 1077.05 238.285C1079.7 239.627 1080.72 239.86 1080.95 239.178C1084.23 229.719 1087.39 222.026 1091.24 214.122C1094.93 206.563 1096.87 203.498 1100.05 200.227C1103.1 197.095 1104.64 196.032 1106.15 196.032H1108.16L1105.68 199.46C1102.78 203.466 1097.51 213.075 1094.38 220.072L1092.18 224.985L1094.51 223.34C1099.42 219.882 1111.5 206.974 1115.57 200.839C1122.94 189.732 1127.64 176.246 1131.47 155.25C1133.79 142.577 1138.56 132.598 1143.8 129.508C1146.85 127.71 1146.94 126.361 1144.83 113.999C1141.63 95.2084 1135.18 79.9662 1127.49 73.0247C1125.02 70.7951 1124.14 70.4392 1121.07 70.4392C1116.64 70.4392 1114.11 71.3603 1113.65 73.1402C1113.03 75.52 1114.76 79.2848 1117.06 80.5458C1118.55 81.3643 1119.3 82.3914 1119.48 83.8459C1119.84 86.8918 1118.15 95.7021 1117.2 95.7021C1116.76 95.7021 1115.15 94.4909 1113.64 93.0112C1111.4 90.8271 1110.65 90.464 1109.64 91.0869C1107.96 92.1227 1105.94 98.1836 1105.9 102.301C1105.86 106.14 1106.75 106.835 1110.73 106.088C1113.13 105.639 1113.2 105.687 1112.4 107.179C1109.95 111.77 1100.76 115.227 1097.9 112.638C1095.33 110.31 1096.63 104.166 1100.98 98.1121C1103.15 95.0784 1103.34 94.3833 1103.34 89.3055C1103.34 83.9924 1103.22 83.5961 1099.96 78.379C1095.94 71.9362 1095.07 69.2165 1096.81 68.5503C1098.52 67.8913 1101.07 70.5699 1103.86 75.9509C1107.08 82.1814 1108.58 81.9865 1110.25 75.1215C1111.32 70.702 1113.05 68.6968 1117.95 66.2095L1121.73 64.2895L1118.44 60.0952C1097.9 33.9251 1068.22 16.7846 1033.33 10.9496C1020.61 8.82322 1002.87 7.9282 991.464 8.83766ZM1082.05 60.9902C1082.05 62.5421 1083.16 67.6574 1084.52 72.3585C1089.42 89.3293 1089.41 92.5182 1084.46 95.8558C1082.35 97.2748 1081.01 99.0129 1079.59 102.167C1077.4 107.047 1075.74 108.309 1072.23 107.74C1070.92 107.526 1068.69 107.669 1067.28 108.056C1064.31 108.877 1064.28 109.048 1065.75 118.039C1066.29 121.393 1066.64 124.479 1066.51 124.897C1066.39 125.314 1066.11 126.5 1065.88 127.53C1065.61 128.768 1063.69 130.751 1060.23 133.369C1052.72 139.045 1051.6 139.732 1049.85 139.732C1047.66 139.732 1046.55 134.968 1046.34 124.706C1046.15 115.784 1045.34 113.665 1041.38 111.719C1038.67 110.392 1036.5 105.768 1036.46 101.256C1036.41 94.9182 1032.65 89.9277 1027.92 89.9277C1025.85 89.9277 1021.93 92.0223 1016.37 96.1048C1011.67 99.5507 1001.21 109.236 1001.21 110.14C1001.21 110.911 1009.28 109.59 1012.31 108.323C1016.79 106.453 1020.44 103.729 1022.54 100.698C1023.62 99.1407 1024.8 97.8674 1025.16 97.8674C1026.23 97.8674 1027.91 102.637 1027.91 105.643C1027.91 107.167 1028.75 110.079 1029.76 112.124C1031.48 115.558 1033.17 117.1 1039.1 120.619C1040.61 121.513 1041.53 128.981 1041.59 140.814C1041.66 153.092 1043.36 157.055 1048.56 157.055C1052.04 157.055 1055.41 153.664 1057.15 148.393C1059.04 142.649 1061.49 139.304 1064.76 137.996C1068.16 136.636 1069.97 133.456 1072.41 124.574C1074.16 118.178 1075.81 115.912 1078.73 115.912C1079.93 115.912 1080.93 114.751 1082.96 110.981C1084.43 108.269 1086.53 105.179 1087.63 104.116C1088.73 103.052 1090.34 101.507 1091.21 100.682C1095.09 96.9948 1096.97 83.6235 1094.71 75.8347C1093.05 70.1411 1091.47 67.1688 1087.47 62.2678C1083.46 57.3444 1082.05 57.0117 1082.05 60.9902ZM1102.61 121.702C1099.92 124.665 1098.24 140.795 1100.17 145.032C1101.33 147.571 1104.08 148.76 1108.69 148.714C1116.67 148.636 1121.17 144.223 1116 141.55L1113.86 140.445L1114.02 131.044C1114.19 120.202 1114.23 120.271 1107.97 120.254C1104.82 120.245 1103.63 120.566 1102.61 121.702ZM1106.83 126.367C1104.28 128.153 1102.49 136.247 1103.57 141.175C1103.97 143.027 1104.55 143.763 1105.73 143.934C1107.95 144.254 1109.53 140.274 1109.99 133.248C1110.41 126.673 1109.43 124.544 1106.83 126.367ZM1151.3 132.387C1147.49 134.808 1142.72 140.776 1140.2 146.277C1139.21 148.456 1137.58 154.305 1136.59 159.274C1133.64 174.097 1126.81 191.619 1117.31 208.764C1109.13 223.502 1103.61 229.583 1090.63 238.124C1082.37 243.561 1081.49 245.005 1082.57 251.299C1083.44 256.397 1085.38 260.86 1088.51 264.969C1090.49 267.561 1090.8 268.699 1091.54 275.914C1092.66 286.951 1091.51 299.396 1088.88 304.783C1087.25 308.114 1081.36 314.406 1079.86 314.406C1079.57 314.406 1079.47 312.376 1079.65 309.895C1079.85 307.209 1079.58 304.069 1078.99 302.135L1078.01 298.887L1072.63 299.116C1067.7 299.325 1066.97 299.166 1063.92 297.207C1059.76 294.541 1056.6 290.509 1056.91 288.281C1057.1 286.932 1057.66 286.574 1059.85 286.393C1062.14 286.203 1062.68 286.444 1063.37 287.968C1064.49 290.427 1067.65 291.591 1071.84 291.094C1080.83 290.03 1082.93 286.87 1082.96 274.411C1082.97 267.504 1082.81 266.414 1081.61 265.555C1078.48 263.305 1077.91 262.489 1077.44 259.549C1076.72 255.012 1072.54 246.477 1069.61 243.547C1064.25 238.185 1051.67 237.901 1044.26 242.976C1038.07 247.22 1035.64 254.413 1035.61 268.572C1035.59 279.099 1036.58 283.191 1040.29 287.887C1043.54 292.004 1044.66 295.399 1045.01 302.135L1045.32 308.271L1043.26 305.942C1040.47 302.795 1032.08 286.371 1030.06 280.121C1028.11 274.039 1027.07 271.856 1023.89 267.128C1017.59 257.785 1005.57 208.286 997.89 160.093C996.158 149.225 995.67 147.383 994.111 145.823C990.673 142.386 986.036 142.84 984.537 146.76C983.469 149.556 985.116 157.374 988.559 165.844C988.958 166.826 988.733 166.977 987.37 166.647C982.8 165.538 979.628 159.726 979.05 151.401C978.838 148.357 978.19 145.109 977.61 144.182C974.558 139.31 963.203 139.288 959.799 144.147C958.162 146.484 958.32 151.643 960.142 155.408C960.979 157.135 964.311 161.217 967.546 164.478C973.167 170.142 983.725 184.761 988.773 193.866C991.446 198.688 992.612 204.228 995.006 223.471C999.567 260.138 1003.18 314.463 1003.86 356.631C1004.34 385.842 1003.93 390.589 999.472 408.252C996.85 418.635 992.028 434.209 991.141 435.159C990.846 435.474 990.408 430.439 990.167 423.971C988.371 375.654 973.431 333.913 948.556 307.711C936.013 294.498 920.295 284.241 906.94 280.553L904.443 279.864L905.923 281.797C945.233 333.118 968.734 385.705 970.653 426.645C970.895 431.806 970.919 435.866 970.706 435.667C970.494 435.469 968.964 429.799 967.305 423.068C956.258 378.231 940.931 341.67 924.325 320.541C920.216 315.314 913.174 307.84 913.132 308.662C913.122 308.844 912.814 312.877 912.447 317.625C911.258 332.979 913.529 353.595 918.57 373.232C924.921 397.966 937.383 427.194 948.072 442.428C949.706 444.758 952.096 448.158 953.383 449.986C960.528 460.128 966.874 484.364 969.921 513.148L971.209 525.306L972.745 523.38C975.518 519.902 980.108 510.509 982.72 502.968C985.365 495.332 987.043 487.41 987.879 478.614C988.612 470.915 991.007 462.594 1001.57 431.064C1015.51 389.443 1016.63 382.556 1016.69 338.082C1016.71 322.718 1016.94 310.375 1017.2 310.653C1018.15 311.668 1020.77 321.384 1021.9 328.09C1023.3 336.385 1023.46 359.85 1022.2 371.789C1018.08 410.895 1008.14 449.757 991.485 491.967C983.937 511.092 978.84 522.512 972.154 535.275C960.126 558.235 957.359 565.082 954.031 580.111C951.969 589.425 950.326 600.12 950.873 600.668C951.074 600.87 952.002 599.801 952.933 598.294C955.373 594.345 966.827 580.521 977.21 568.993C986.06 559.167 986.237 558.901 991.423 547.7C1005.63 517.015 1017.41 495.5 1023.6 488.96L1027.24 485.11L1024.27 489.802C1017.33 500.755 1001.77 536.854 993.614 560.899C992.134 565.266 990.31 570.052 989.56 571.534C987.448 575.713 976.486 589.846 963.657 604.928C950.225 620.72 946.364 625.887 943.786 631.516C941.363 636.811 941.527 641.681 944.197 643.666C948.528 646.888 963.886 650.585 985.441 653.597C995.876 655.056 1023.8 658.089 1023.93 657.779C1023.97 657.692 1024.76 655.67 1025.69 653.289C1028.1 647.096 1042.01 619.94 1052.44 601.07C1062.43 582.967 1062.86 582.67 1062.85 593.74C1062.85 601.19 1061.32 604.933 1054.76 613.526C1047.59 622.926 1030.61 655.212 1032.09 656.656C1033.09 657.636 1061.94 658.182 1067.9 657.333C1077.18 656.012 1086.92 650.186 1093.27 642.158C1097.56 636.74 1097.49 634.751 1092.79 627.712C1089.69 623.061 1078.77 611.064 1077.64 611.064C1077.29 611.064 1076.99 614.88 1076.98 619.545L1076.97 628.026L1073.03 634.049C1070.87 637.361 1068.91 641.259 1068.67 642.711C1068.44 644.161 1068.11 645.998 1067.93 646.792C1067.48 648.871 1064.93 651.929 1064.23 651.231C1063.91 650.907 1063.64 647.784 1063.64 644.294C1063.65 638.005 1063.69 637.87 1067.82 629.614C1070.44 624.402 1072.26 619.706 1072.69 617.075C1073.46 612.377 1073.65 555.328 1072.92 548.342C1072.57 544.999 1072.11 543.689 1071.08 543.139C1069.32 542.196 1064.73 543.615 1064.73 545.104C1064.73 550.247 1046.99 570.624 1034.01 580.392C1021.16 590.064 1001.57 602.402 999.064 602.402C997.675 602.402 998.314 599.428 1000.25 596.894C1002.87 593.452 1013.94 584.681 1026.08 576.419C1031.62 572.648 1038.1 567.776 1040.46 565.592C1051.56 555.35 1060.61 538.826 1065.16 520.478C1066.87 513.592 1066.99 511.753 1067.63 480.443C1068.51 437.148 1069.65 422.023 1073.47 402.465C1077.14 383.67 1080.87 371.676 1094.33 335.338C1099.41 321.642 1106.81 301.179 1110.78 289.865C1127.2 243.038 1134.71 225.695 1147.51 205.054C1154.74 193.398 1155.78 191.324 1158.04 184.122C1162.67 169.367 1164.97 146.156 1161.99 144.314C1160.83 143.596 1160.08 145.583 1159.57 150.755C1159.06 155.985 1158.43 157.004 1156.65 155.526C1155.78 154.8 1155.59 153.453 1155.79 149.435C1156 145.246 1156.42 143.738 1158.03 141.423C1160.26 138.205 1160.51 135.592 1158.9 132.478C1157.49 129.75 1155.49 129.726 1151.3 132.387ZM1080.24 150.498C1074.41 153.243 1070.08 156.54 1068.64 159.333C1066.31 163.841 1068.73 173.426 1072.73 175.492C1075.48 176.917 1076.74 176.815 1081.01 174.827C1088.94 171.135 1094.3 164.016 1094.31 157.163C1094.32 153.729 1094.05 153.029 1091.87 150.847C1088.79 147.767 1086.21 147.689 1080.24 150.498ZM1080.9 156.65C1076.04 159.837 1073.98 162.521 1074.25 165.312C1074.66 169.492 1081.69 170.475 1085.3 166.859C1086.94 165.218 1089.02 157.179 1088.3 155.286C1087.62 153.528 1084.9 154.03 1080.9 156.65ZM1132 256.828C1104.53 325.58 1087.43 370.62 1083.23 385.298C1081.86 390.106 1081.44 393.751 1081.07 403.908C1080.82 410.856 1080.13 422.874 1079.53 430.615C1077.97 450.591 1077.35 469.408 1078.27 468.509C1079.19 467.611 1087.95 447.111 1093.99 431.687C1100.26 415.71 1104.1 403.965 1106.95 392.042C1108.29 386.46 1118.83 343.279 1130.38 296.083C1141.94 248.887 1151.26 210.147 1151.11 209.994C1150.96 209.841 1142.36 230.916 1132 256.828ZM881.39 215.674C881.39 226.304 886.535 240.782 894.067 251.346C902.194 262.746 909.294 268.749 934.081 285.175C943.807 291.621 954.363 299.142 957.539 301.888C974.649 316.682 984.42 336.167 990.824 368.26L992.793 378.132L993.734 374.96C996.016 367.275 996.38 360.468 995.911 334.255C995.432 307.524 994.675 296.057 992.932 289.143C990.209 278.344 987.527 255.129 986.802 236.091C986.477 227.571 985.851 219.993 985.371 218.785L984.518 216.637L980.745 223.838C973.67 237.341 965.608 247.305 957.293 252.825C941.796 263.111 920.915 258.306 902.071 240.115C894.802 233.099 890.306 227.435 885.358 219.063L881.39 212.346V215.674ZM1097.37 651.141C1090.48 658.444 1076.91 661.513 1044.88 663.013C1027.22 663.841 1015.79 664.904 1012.95 665.983C1009.9 667.143 996.698 666.703 987.404 665.132C976.36 663.265 956.01 658.21 943.731 654.285L934.498 651.333L932.911 653.177C930.87 655.55 928.307 662.399 928.307 665.48C928.307 674.635 946.773 683.605 973.78 687.566C1010.84 693.002 1068.29 689.225 1096.82 679.479C1105.23 676.606 1110.2 673.432 1110.2 670.929C1110.2 670.249 1107.84 664.955 1104.97 659.165L1099.73 648.637L1097.37 651.141ZM1106.95 680.759C1095.21 686.423 1062.75 693.783 1038.38 696.303C1008.13 699.433 955.46 694.108 929.801 685.326C926.399 684.161 923.043 683.016 922.345 682.779C919.764 681.906 911.705 702.97 911.705 710.591C911.705 714.638 912.841 716.427 916.935 718.826C939.699 732.166 1018.16 739.249 1069.78 732.624C1095.38 729.338 1115.49 723.288 1125.05 715.995C1127.96 713.771 1130.41 710.042 1130.41 707.818C1130.41 703.506 1120.68 684.374 1116.57 680.619C1113.86 678.132 1112.35 678.154 1106.95 680.759ZM1130.89 719.774C1123.41 728.404 1100.98 734.705 1063.28 738.76C1003.15 745.228 972.453 743.912 935.886 733.3C928.224 731.076 914.96 726.049 909.639 723.353L905.873 721.445L903.422 726.824C900.263 733.756 898.713 739.034 898.713 742.861C898.713 745.588 899.07 746.231 902.036 748.842C911.56 757.224 942.004 768.732 968.143 773.828C1007.21 781.445 1047.99 778.689 1102.05 764.78C1117.28 760.862 1133.03 755.875 1139.88 752.8L1144.29 750.82L1143.85 747.061C1143.44 743.569 1136.34 721.643 1134.48 718.135C1133.68 716.621 1133.58 716.668 1130.89 719.774ZM898.338 756.89C895.924 760.795 896.967 765.629 900.814 768.369C906.208 772.21 925.811 779.427 943.103 783.94C973.34 791.83 996.579 793.763 1034.77 791.566C1077.22 789.123 1109.15 784.699 1126.76 778.82C1137.05 775.382 1142.14 772.157 1144.55 767.549C1146.13 764.527 1145.72 756.144 1144 756.144C1143.62 756.144 1138.71 757.977 1133.07 760.217C1103.36 772.029 1069.41 780.977 1044.52 783.558C1035.68 784.475 1003.25 784.477 989.298 783.562C963.658 781.88 943.04 778.327 928.154 773.026C920.238 770.208 909.375 764.311 904.137 759.991C899.083 755.822 899.018 755.788 898.338 756.89Z" fill="black"/>
<path d="M1130.89 719.774C1123.41 728.404 1100.98 734.705 1063.28 738.76C1003.15 745.228 972.453 743.912 935.886 733.3C928.224 731.076 914.96 726.049 909.639 723.353L905.873 721.445L903.422 726.824C900.263 733.756 898.713 739.034 898.713 742.861C898.713 745.588 899.07 746.231 902.036 748.842C911.56 757.224 942.004 768.732 968.143 773.828C1007.21 781.445 1047.99 778.689 1102.05 764.78C1117.28 760.862 1133.03 755.875 1139.88 752.8L1144.29 750.82L1143.85 747.061C1143.44 743.569 1136.34 721.643 1134.48 718.135C1133.68 716.621 1133.58 716.668 1130.89 719.774Z" fill="#04461B"/>
<path d="M1097.37 651.141C1090.48 658.444 1076.91 661.513 1044.88 663.013C1027.22 663.841 1015.79 664.904 1012.95 665.983C1009.9 667.143 996.698 666.703 987.404 665.132C976.36 663.265 956.01 658.21 943.731 654.285L934.498 651.333L932.911 653.177C930.87 655.55 928.307 662.399 928.307 665.48C928.307 674.635 946.773 683.605 973.78 687.566C1010.84 693.002 1068.29 689.225 1096.82 679.479C1105.23 676.606 1110.2 673.432 1110.2 670.929C1110.2 670.249 1107.84 664.955 1104.97 659.165L1099.73 648.637L1097.37 651.141Z" fill="#04461B"/>
<path d="M1151.3 132.387C1147.49 134.808 1142.72 140.776 1140.2 146.277C1139.21 148.456 1137.58 154.305 1136.59 159.274C1133.64 174.097 1126.81 191.619 1117.31 208.764C1109.13 223.502 1103.61 229.583 1090.63 238.124C1082.37 243.561 1081.49 245.005 1082.57 251.299C1083.44 256.397 1085.38 260.86 1088.51 264.969C1090.49 267.561 1090.8 268.699 1091.54 275.914C1092.66 286.951 1091.51 299.396 1088.88 304.783C1087.25 308.114 1081.36 314.406 1079.86 314.406C1079.57 314.406 1079.47 312.376 1079.65 309.895C1079.85 307.209 1079.58 304.069 1078.99 302.135L1078.01 298.887L1072.63 299.116C1067.7 299.325 1066.97 299.166 1063.92 297.207C1059.76 294.541 1056.6 290.509 1056.91 288.281C1057.1 286.932 1057.66 286.574 1059.85 286.393C1062.14 286.203 1062.68 286.444 1063.37 287.968C1064.49 290.427 1067.65 291.591 1071.84 291.094C1080.83 290.03 1082.93 286.87 1082.96 274.411C1082.97 267.504 1082.81 266.414 1081.61 265.555C1078.48 263.305 1077.91 262.489 1077.44 259.549C1076.72 255.012 1072.54 246.477 1069.61 243.547C1064.25 238.185 1051.67 237.901 1044.26 242.976C1038.07 247.22 1035.64 254.413 1035.61 268.572C1035.59 279.099 1036.58 283.191 1040.29 287.887C1043.54 292.004 1044.66 295.399 1045.01 302.135L1045.32 308.271L1043.26 305.942C1040.47 302.795 1032.08 286.371 1030.06 280.121C1028.11 274.039 1027.07 271.856 1023.89 267.128C1017.59 257.785 1005.57 208.286 997.89 160.093C996.158 149.225 995.67 147.383 994.111 145.823C990.673 142.386 986.036 142.84 984.537 146.76C983.469 149.556 985.116 157.374 988.559 165.844C988.958 166.826 988.733 166.977 987.37 166.647C982.8 165.538 979.628 159.726 979.05 151.401C978.838 148.357 978.19 145.109 977.61 144.182C974.558 139.31 963.203 139.288 959.799 144.147C958.162 146.484 958.32 151.643 960.142 155.408C960.979 157.135 964.311 161.217 967.546 164.478C973.167 170.142 983.725 184.761 988.773 193.866C991.446 198.688 992.612 204.228 995.006 223.471C999.567 260.138 1003.18 314.463 1003.86 356.631C1004.34 385.842 1003.93 390.589 999.472 408.252C996.85 418.635 992.028 434.209 991.141 435.159C990.846 435.474 990.408 430.439 990.167 423.971C988.371 375.654 973.431 333.913 948.556 307.711C936.013 294.498 920.295 284.241 906.94 280.553L904.443 279.864L905.923 281.797C945.233 333.118 968.734 385.705 970.653 426.645C970.895 431.806 970.919 435.866 970.706 435.667C970.494 435.469 968.964 429.799 967.305 423.068C956.258 378.231 940.931 341.67 924.325 320.541C920.216 315.314 913.174 307.84 913.132 308.662C913.122 308.844 912.814 312.877 912.447 317.625C911.258 332.979 913.529 353.595 918.57 373.232C924.921 397.966 937.383 427.194 948.072 442.428C949.706 444.758 952.096 448.158 953.383 449.986C960.528 460.128 966.874 484.364 969.921 513.148L971.209 525.306L972.745 523.38C975.518 519.902 980.108 510.509 982.72 502.968C985.365 495.332 987.043 487.41 987.879 478.614C988.612 470.915 991.007 462.594 1001.57 431.064C1015.51 389.443 1016.63 382.556 1016.69 338.082C1016.71 322.718 1016.94 310.375 1017.2 310.653C1018.15 311.668 1020.77 321.384 1021.9 328.09C1023.3 336.385 1023.46 359.85 1022.2 371.789C1018.08 410.895 1008.14 449.757 991.485 491.967C983.937 511.092 978.84 522.512 972.154 535.275C960.126 558.235 957.359 565.082 954.031 580.111C951.969 589.425 950.326 600.12 950.873 600.668C951.074 600.87 952.002 599.801 952.933 598.294C955.373 594.345 966.827 580.521 977.21 568.993C986.06 559.167 986.237 558.901 991.423 547.7C1005.63 517.015 1017.41 495.5 1023.6 488.96L1027.24 485.11L1024.27 489.802C1017.33 500.755 1001.77 536.854 993.614 560.899C992.134 565.266 990.31 570.052 989.56 571.534C987.448 575.713 976.486 589.846 963.657 604.928C950.225 620.72 946.364 625.887 943.786 631.516C941.363 636.811 941.527 641.681 944.197 643.666C948.528 646.888 963.886 650.585 985.441 653.597C995.876 655.056 1023.8 658.089 1023.93 657.779C1023.97 657.692 1024.76 655.67 1025.69 653.289C1028.1 647.096 1042.01 619.94 1052.44 601.07C1062.43 582.967 1062.86 582.67 1062.85 593.74C1062.85 601.19 1061.32 604.933 1054.76 613.526C1047.59 622.926 1030.61 655.212 1032.09 656.656C1033.09 657.636 1061.94 658.182 1067.9 657.333C1077.18 656.012 1086.92 650.186 1093.27 642.158C1097.56 636.74 1097.49 634.751 1092.79 627.712C1089.69 623.061 1078.77 611.064 1077.64 611.064C1077.29 611.064 1076.99 614.88 1076.98 619.545L1076.97 628.026L1073.03 634.049C1070.87 637.361 1068.91 641.259 1068.67 642.711C1068.44 644.161 1068.11 645.998 1067.93 646.792C1067.48 648.871 1064.93 651.929 1064.23 651.231C1063.91 650.907 1063.64 647.784 1063.64 644.294C1063.65 638.005 1063.69 637.87 1067.82 629.614C1070.44 624.402 1072.26 619.706 1072.69 617.075C1073.46 612.377 1073.65 555.328 1072.92 548.342C1072.57 544.999 1072.11 543.689 1071.08 543.139C1069.32 542.196 1064.73 543.615 1064.73 545.104C1064.73 550.247 1046.99 570.624 1034.01 580.392C1021.16 590.064 1001.57 602.402 999.064 602.402C997.675 602.402 998.314 599.428 1000.25 596.894C1002.87 593.452 1013.94 584.681 1026.08 576.419C1031.62 572.648 1038.1 567.776 1040.46 565.592C1051.56 555.35 1060.61 538.826 1065.16 520.478C1066.87 513.592 1066.99 511.753 1067.63 480.443C1068.51 437.148 1069.65 422.023 1073.47 402.465C1077.14 383.67 1080.87 371.676 1094.33 335.338C1099.41 321.642 1106.81 301.179 1110.78 289.865C1127.2 243.038 1134.71 225.695 1147.51 205.054C1154.74 193.398 1155.78 191.324 1158.04 184.122C1162.67 169.367 1164.97 146.156 1161.99 144.314C1160.83 143.596 1160.08 145.583 1159.57 150.755C1159.06 155.985 1158.43 157.004 1156.65 155.526C1155.78 154.8 1155.59 153.453 1155.79 149.435C1156 145.246 1156.42 143.738 1158.03 141.423C1160.26 138.205 1160.51 135.592 1158.9 132.478C1157.49 129.75 1155.49 129.726 1151.3 132.387Z" fill="#EAB600"/>
<path d="M1106.95 680.759C1095.21 686.423 1062.75 693.783 1038.38 696.303C1008.13 699.433 955.46 694.108 929.801 685.326C926.399 684.161 923.043 683.016 922.345 682.779C919.764 681.906 911.705 702.97 911.705 710.591C911.705 714.638 912.841 716.427 916.935 718.826C939.699 732.166 1018.16 739.249 1069.78 732.624C1095.38 729.338 1115.49 723.288 1125.05 715.995C1127.96 713.771 1130.41 710.042 1130.41 707.818C1130.41 703.506 1120.68 684.374 1116.57 680.619C1113.86 678.132 1112.35 678.154 1106.95 680.759Z" fill="#EAB600"/>
<path d="M898.338 756.89C895.924 760.795 896.967 765.629 900.814 768.369C906.208 772.21 925.811 779.427 943.103 783.94C973.34 791.83 996.579 793.763 1034.77 791.566C1077.22 789.123 1109.15 784.699 1126.76 778.82C1137.05 775.382 1142.14 772.157 1144.55 767.549C1146.13 764.527 1145.72 756.144 1144 756.144C1143.62 756.144 1138.71 757.977 1133.07 760.217C1103.36 772.029 1069.41 780.977 1044.52 783.558C1035.68 784.475 1003.25 784.477 989.298 783.562C963.658 781.88 943.04 778.327 928.154 773.026C920.238 770.208 909.375 764.311 904.137 759.991C899.083 755.822 899.018 755.788 898.338 756.89Z" fill="#EAB600"/>
<path d="M1132 256.828C1104.53 325.58 1087.43 370.62 1083.23 385.298C1081.86 390.106 1081.44 393.751 1081.07 403.908C1080.82 410.856 1080.13 422.874 1079.53 430.615C1077.97 450.591 1077.35 469.408 1078.27 468.509C1079.19 467.611 1087.95 447.111 1093.99 431.687C1100.26 415.71 1104.1 403.965 1106.95 392.042C1108.29 386.46 1118.83 343.279 1130.38 296.083C1141.94 248.887 1151.26 210.147 1151.11 209.994C1150.96 209.841 1142.36 230.916 1132 256.828Z" fill="#EAB600"/>
<path fill-rule="evenodd" clip-rule="evenodd" d="M991.464 8.83766C962.564 11.1424 945.046 17.0365 927.13 30.4843C920.362 35.5643 909.554 46.9398 907.736 50.8988C903.352 60.4373 899.048 68.9011 894.498 76.9296L889.388 85.9463L893.87 86.7078C899.293 87.6295 902.22 89.1027 904.871 92.2476C907.64 95.5303 908.644 98.2334 909.421 104.492C909.788 107.454 910.617 110.897 911.262 112.145C913.164 115.822 919.276 118.801 929.028 120.805L932.277 121.473L930.111 122.398C926.876 123.779 920.883 124.134 917.827 123.126C911.857 121.155 906.779 114.33 905.29 106.273C904.866 103.981 903.84 101.233 903.01 100.167C899.863 96.1243 888.967 88.5585 887.87 89.6549C885.891 91.634 883.15 112.358 881.994 134.07C881.082 151.2 881.842 168.951 883.97 180.252C887.27 197.773 903.384 234.65 908.14 235.566C908.789 235.691 910.257 234.391 911.64 232.466C914.61 228.33 915.258 223.953 915.291 207.808C915.315 195.757 914.938 193.489 912.503 191.055C909.339 187.89 908.768 179.238 910.594 162.107C912.071 148.253 914.24 142.856 919.527 139.885C921.089 139.006 923.428 138.288 924.724 138.288H927.08L924.161 140.403C914.99 147.045 912.839 169.653 918.663 198.197C920.941 209.368 920.725 218.004 917.898 228.702C915.292 238.564 915.373 239.354 919.34 242.846C923.339 246.367 929.294 248.489 937.917 249.47C948.203 250.638 953.806 248.651 961.157 241.225C968.854 233.449 974.911 222.809 979.282 209.385C981.482 202.629 981.818 200.736 981.537 196.69C981.003 188.988 978.2 184.642 965.061 171.138C952.437 158.163 950.864 155.581 951.634 149.09C952.179 144.485 955.431 137.188 957.753 135.362C961.026 132.787 968.224 133.497 978.374 137.399C983.197 139.252 983.356 139.267 984.329 137.936C985.572 136.236 985.613 134.247 984.426 133.275C983.93 132.868 982.461 131.684 981.162 130.642C979.721 129.487 977.692 126.43 975.962 122.806C973.873 118.428 972.26 116.154 969.833 114.166C965.516 110.628 964.292 108.079 963.756 101.517C963.343 96.4513 963.186 96.0485 961.371 95.4126C958.394 94.3682 954.496 97.4149 948.015 105.852C943.37 111.9 942.358 112.874 941.928 111.711C941.318 110.064 942.33 105.089 943.887 102.079C944.494 100.906 946.118 98.6968 947.498 97.1702L950.007 94.3934L947.023 93.8889C941.348 92.9304 937.785 87.4642 938.88 81.3975L939.313 79.0026L941.208 80.7674C943.675 83.0649 948.499 84.5345 958.138 85.9239C962.437 86.5439 966.575 87.3834 967.333 87.789C969.534 88.967 970.88 92.3825 971.663 98.774C972.631 106.687 972.694 106.842 976.006 109.465C979.277 112.055 980.99 114.929 981.014 117.861C981.049 122.393 986.016 129.295 990.441 130.962C993.344 132.055 994.819 130.372 995.724 124.935C996.713 118.997 997.017 118.078 997.992 118.078C999.811 118.078 1000.68 121.008 1000.32 125.96C999.959 131.042 998.837 133.863 995.937 136.987L994.129 138.935L995.854 140.066C999.663 142.561 1001.61 148.96 1004.11 167.147C1004.95 173.294 1006.09 180.277 1006.65 182.665C1009.33 194.22 1019.2 226.41 1026.21 246.467L1029.58 256.12L1031.2 251.662C1034.39 242.846 1039.08 237.438 1046.36 234.173C1053.55 230.951 1065.83 232.596 1077.05 238.285C1079.7 239.627 1080.72 239.86 1080.95 239.178C1084.23 229.719 1087.39 222.026 1091.24 214.122C1094.93 206.563 1096.87 203.498 1100.05 200.227C1103.1 197.095 1104.64 196.032 1106.15 196.032H1108.16L1105.68 199.46C1102.78 203.466 1097.51 213.075 1094.38 220.072L1092.18 224.985L1094.51 223.34C1099.42 219.882 1111.5 206.974 1115.57 200.839C1122.94 189.732 1127.64 176.246 1131.47 155.25C1133.79 142.577 1138.56 132.598 1143.8 129.508C1146.85 127.71 1146.94 126.361 1144.83 113.999C1141.63 95.2084 1135.18 79.9662 1127.49 73.0247C1125.02 70.7951 1124.14 70.4392 1121.07 70.4392C1116.64 70.4392 1114.11 71.3603 1113.65 73.1402C1113.03 75.52 1114.76 79.2848 1117.06 80.5458C1118.55 81.3643 1119.3 82.3914 1119.48 83.8459C1119.84 86.8918 1118.15 95.7021 1117.2 95.7021C1116.76 95.7021 1115.15 94.4909 1113.64 93.0112C1111.4 90.8271 1110.65 90.464 1109.64 91.0869C1107.96 92.1227 1105.94 98.1836 1105.9 102.301C1105.86 106.14 1106.75 106.835 1110.73 106.088C1113.13 105.639 1113.2 105.687 1112.4 107.179C1109.95 111.77 1100.76 115.227 1097.9 112.638C1095.33 110.31 1096.63 104.166 1100.98 98.1121C1103.15 95.0784 1103.34 94.3833 1103.34 89.3055C1103.34 83.9924 1103.22 83.5961 1099.96 78.379C1095.94 71.9362 1095.07 69.2165 1096.81 68.5503C1098.52 67.8913 1101.07 70.5699 1103.86 75.9509C1107.08 82.1814 1108.58 81.9865 1110.25 75.1215C1111.32 70.702 1113.05 68.6968 1117.95 66.2095L1121.73 64.2895L1118.44 60.0952C1097.9 33.9251 1068.22 16.7846 1033.33 10.9496C1020.61 8.82322 1002.87 7.9282 991.464 8.83766ZM1084.52 72.3585C1083.16 67.6574 1082.05 62.5421 1082.05 60.9902C1082.05 57.0117 1083.46 57.3444 1087.47 62.2678C1091.47 67.1688 1093.05 70.1411 1094.71 75.8347C1096.97 83.6235 1095.09 96.9948 1091.21 100.682C1090.34 101.507 1088.73 103.052 1087.63 104.116C1086.53 105.179 1084.43 108.269 1082.96 110.981C1080.93 114.751 1079.93 115.912 1078.73 115.912C1075.81 115.912 1074.16 118.178 1072.41 124.574C1069.97 133.456 1068.16 136.636 1064.76 137.996C1061.49 139.304 1059.04 142.649 1057.15 148.393C1055.41 153.664 1052.04 157.055 1048.56 157.055C1043.36 157.055 1041.66 153.092 1041.59 140.814C1041.53 128.981 1040.61 121.513 1039.1 120.619C1033.17 117.1 1031.48 115.558 1029.76 112.124C1028.75 110.079 1027.91 107.167 1027.91 105.643C1027.91 102.637 1026.23 97.8674 1025.16 97.8674C1024.8 97.8674 1023.62 99.1407 1022.54 100.698C1020.44 103.729 1016.79 106.453 1012.31 108.323C1009.28 109.59 1001.21 110.911 1001.21 110.14C1001.21 109.236 1011.67 99.5507 1016.37 96.1048C1021.93 92.0223 1025.85 89.9277 1027.92 89.9277C1032.65 89.9277 1036.41 94.9182 1036.46 101.256C1036.5 105.768 1038.67 110.392 1041.38 111.719C1045.34 113.665 1046.15 115.784 1046.34 124.706C1046.55 134.968 1047.66 139.732 1049.85 139.732C1051.6 139.732 1052.72 139.045 1060.23 133.369C1063.69 130.751 1065.61 128.768 1065.88 127.53C1066.11 126.5 1066.39 125.314 1066.51 124.897C1066.64 124.479 1066.29 121.393 1065.75 118.039C1064.28 109.048 1064.31 108.877 1067.28 108.056C1068.69 107.669 1070.92 107.526 1072.23 107.74C1075.74 108.309 1077.4 107.047 1079.59 102.167C1081.01 99.0129 1082.35 97.2748 1084.46 95.8558C1089.41 92.5182 1089.42 89.3293 1084.52 72.3585ZM1100.17 145.032C1098.24 140.795 1099.92 124.665 1102.61 121.702C1103.63 120.566 1104.82 120.245 1107.97 120.254C1114.23 120.271 1114.19 120.202 1114.02 131.044L1113.86 140.445L1116 141.55C1121.17 144.223 1116.67 148.636 1108.69 148.714C1104.08 148.76 1101.33 147.571 1100.17 145.032ZM1068.64 159.333C1070.08 156.54 1074.41 153.243 1080.24 150.498C1086.21 147.689 1088.79 147.767 1091.87 150.847C1094.05 153.029 1094.32 153.729 1094.31 157.163C1094.3 164.016 1088.94 171.135 1081.01 174.827C1076.74 176.815 1075.48 176.917 1072.73 175.492C1068.73 173.426 1066.31 163.841 1068.64 159.333Z" fill="#EAB600"/>
<path d="M881.39 215.674C881.39 226.304 886.535 240.782 894.067 251.346C902.194 262.746 909.294 268.749 934.081 285.175C943.807 291.621 954.363 299.142 957.539 301.888C974.649 316.682 984.42 336.167 990.824 368.26L992.793 378.132L993.734 374.96C996.016 367.275 996.38 360.468 995.911 334.255C995.432 307.524 994.675 296.057 992.932 289.143C990.209 278.344 987.527 255.129 986.802 236.091C986.477 227.571 985.851 219.993 985.371 218.785L984.518 216.637L980.745 223.838C973.67 237.341 965.608 247.305 957.293 252.825C941.796 263.111 920.915 258.306 902.071 240.115C894.802 233.099 890.306 227.435 885.358 219.063L881.39 212.346V215.674Z" fill="#EAB600"/>
<path d="M1080.9 156.65C1076.04 159.837 1073.98 162.521 1074.25 165.312C1074.66 169.492 1081.69 170.475 1085.3 166.859C1086.94 165.218 1089.02 157.179 1088.3 155.286C1087.62 153.528 1084.9 154.03 1080.9 156.65Z" fill="#EAB600"/>
<path d="M1106.83 126.367C1104.28 128.153 1102.49 136.247 1103.57 141.175C1103.97 143.027 1104.55 143.763 1105.73 143.934C1107.95 144.254 1109.53 140.274 1109.99 133.248C1110.41 126.673 1109.43 124.544 1106.83 126.367Z" fill="#EAB600"/>
</svg>
